<svg width="512" xmlns="http://www.w3.org/2000/svg" height="512" id="screenshot-6303aa2b-e37f-80b7-8007-45471d7f9bb9" viewBox="0 0 512 512" xmlns:xlink="http://www.w3.org/1999/xlink" fill="none" version="1.1"><g id="shape-6303aa2b-e37f-80b7-8007-45471d7f9bb9"><defs><clipPath id="frame-clip-6303aa2b-e37f-80b7-8007-45471d7f9bb9-render-1" class="frame-clip frame-clip-def"><rect rx="64" ry="64" x="0" y="0" width="512" height="512" transform="matrix(1.000000, 0.000000, 0.000000, 1.000000, 0.000000, 0.000000)"/></clipPath></defs><g class="frame-container-wrapper"><g class="frame-container-blur"><g class="frame-container-shadows"><g clip-path="url(#frame-clip-6303aa2b-e37f-80b7-8007-45471d7f9bb9-render-1)" fill="none"><g class="fills" id="fills-6303aa2b-e37f-80b7-8007-45471d7f9bb9"><rect width="512" height="512" class="frame-background" x="0" transform="matrix(1.000000, 0.000000, 0.000000, 1.000000, 0.000000, 0.000000)" style="fill: rgb(63, 145, 240); fill-opacity: 1;" ry="64" rx="64" y="0"/></g><g class="frame-children"><g id="shape-6303aa2b-e37f-80b7-8007-454730547cb0"><g class="frame-container-wrapper"><g class="frame-container-blur"><g class="frame-container-shadows"><g fill="none"><g class="fills" id="fills-6303aa2b-e37f-80b7-8007-454730547cb0"><rect rx="0" ry="0" x="68" y="144" width="377.00000000000045" height="225.0000000000001" transform="matrix(1.000000, 0.000000, 0.000000, 1.000000, 0.000000, 0.000000)" class="frame-background"/></g><g class="frame-children"><g id="shape-6303aa2b-e37f-80b7-8007-45473054c0d8"><g class="fills" id="fills-6303aa2b-e37f-80b7-8007-45473054c0d8"><path d="M133.103271484375,369C119.57861328125,365.1790771484375,109.377685546875,358.875,102.500244140625,350.087646484375C95.69970703125,341.37664794921875,92.29931640625,329.8382568359375,92.29931640625,315.472412109375L92.29931640625,292.6627197265625C92.29931640625,274.09405517578125,84.199462890625,264.80975341796875,68,264.80975341796875L68,248.19024658203125C84.199462890625,248.19024658203125,92.29931640625,238.94415283203125,92.29931640625,220.45184326171875L92.29931640625,196.61077880859375C92.4521484375,182.62713623046875,95.8525390625,171.3560791015625,102.500244140625,162.79779052734375C109.224609375,154.16302490234375,119.42578125,147.8970947265625,133.103271484375,144L137.459228515625,157.18133544921875C121.48876953125,162.30108642578125,113.50390625,175.63525390625,113.50390625,197.1839599609375L113.50390625,220.3372802734375C113.50390625,237.68341064453125,107.123291015625,249.7564697265625,94.3623046875,256.55755615234375C107.123291015625,263.4344482421875,113.50390625,275.6226806640625,113.50390625,293.1209716796875L113.50390625,316.73309326171875C113.733154296875,337.74664306640625,121.71826171875,350.775634765625,137.459228515625,355.818359375L133.103271484375,369Z" style="fill: rgb(255, 255, 255);"/></g></g><g id="shape-6303aa2b-e37f-80b7-8007-45473054c0d9"><g class="fills" id="fills-6303aa2b-e37f-80b7-8007-45473054c0d9"><path d="M375.540771484375,355.818359375C391.026611328125,350.85198974609375,399.036865234375,338.20550537109375,399.571044921875,317.87908935546875L399.571044921875,292.6627197265625C399.571044921875,275.0111083984375,406.474853515625,262.97625732421875,420.28271484375,256.55755615234375C406.474853515625,250.29168701171875,399.571044921875,238.25616455078125,399.571044921875,220.45184326171875L399.571044921875,197.1839599609375C399.571044921875,175.63525390625,391.599365234375,162.30108642578125,375.65478515625,157.18133544921875L380.003173828125,144C393.505859375,147.82073974609375,403.652587890625,154.04840087890625,410.442138671875,162.68316650390625C417.231689453125,171.24139404296875,420.664306640625,182.5888671875,420.740234375,196.72540283203125L420.740234375,220.79547119140625C420.740234375,239.05865478515625,428.8271484375,248.19024658203125,445,248.19024658203125L445,264.80975341796875C428.8271484375,264.80975341796875,420.740234375,274.09405517578125,420.740234375,292.6627197265625L420.740234375,315.81597900390625C420.740234375,330.18194580078125,417.26953125,341.68218994140625,410.3271484375,350.3167724609375C403.461181640625,358.95147705078125,393.353271484375,365.1790771484375,380.003173828125,369L375.540771484375,355.818359375Z" style="fill: rgb(255, 255, 255);"/></g></g><g id="shape-6303aa2b-e37f-80b7-8007-45473054c0da"><g class="fills" id="fills-6303aa2b-e37f-80b7-8007-45473054c0da"><path d="M205.5478515625,214.8941650390625L205.5478515625,209.435791015625L233.3837890625,206.50701904296875L252.163330078125,201.581298828125L254.02783203125,205.44189453125L254.02783203125,228.339599609375L254.560546875,228.339599609375C256.336181640625,224.789794921875,258.511474609375,221.328125,261.086669921875,217.95587158203125C263.661865234375,214.5830078125,266.458984375,211.610107421875,269.477783203125,209.0364990234375C272.5849609375,206.37408447265625,275.87060546875,204.243896484375,279.333251953125,202.64630126953125C282.79638671875,201.048828125,286.303466796875,200.25,289.85498046875,200.25C296.78076171875,200.25,302.108642578125,202.11370849609375,305.837890625,205.84124755859375C309.65576171875,209.47991943359375,311.564697265625,214.36126708984375,311.564697265625,220.4853515625C311.564697265625,223.0589599609375,311.165283203125,225.4549560546875,310.3662109375,227.67388916015625C309.567138671875,229.8040771484375,308.412353515625,231.66778564453125,306.90283203125,233.26519775390625C305.482666015625,234.86248779296875,303.70654296875,236.14990234375,301.575927734375,237.12615966796875C299.533447265625,238.01361083984375,297.26904296875,238.45709228515625,294.782958984375,238.45709228515625C292.11962890625,238.45709228515625,289.72216796875,238.01361083984375,287.59130859375,237.12615966796875C285.4599609375,236.23809814453125,283.6396484375,235.0401611328125,282.13037109375,233.531494140625C280.709716796875,232.0224609375,279.599853515625,230.292236328125,278.80078125,228.339599609375C278.00146484375,226.29827880859375,277.602294921875,224.12408447265625,277.602294921875,221.8162841796875C277.602294921875,217.11248779296875,278.578857421875,213.65142822265625,280.531982421875,211.43243408203125L280.531982421875,210.6337890625C277.33544921875,211.34368896484375,274.18359375,213.02978515625,271.07568359375,215.69281005859375C268.056884765625,218.35516357421875,265.303955078125,221.993896484375,262.818115234375,226.60882568359375C260.332275390625,231.135009765625,258.33447265625,236.6380615234375,256.824462890625,243.11676025390625C255.315185546875,249.506591796875,254.560546875,256.7398681640625,254.560546875,264.81585693359375L254.560546875,331.11260986328125L268.279052734375,332.44415283203125L268.279052734375,337.9024658203125L208.21142578125,337.9024658203125L208.21142578125,332.44415283203125L221.9296875,331.11260986328125L221.9296875,214.8941650390625L205.5478515625,214.8941650390625Z" style="fill: rgb(255, 255, 255);"/></g></g></g></g></g></g></g></g></g></g></g></g></g></g></svg>